<svg width="381" height="265" viewBox="0 0 381 265" fill="none" xmlns="http://www.w3.org/2000/svg">
<path d="M97.8796 120.621H102.183V121.839H98.822V122.639H97.8796V120.625V120.621Z" fill="#FDEF9A"/>
<path d="M102.003 119.062C101.828 119.35 101.57 119.575 101.232 119.734C100.894 119.896 100.494 119.975 100.031 119.975C99.5682 119.975 99.1679 119.896 98.8302 119.734C98.4925 119.571 98.2339 119.346 98.0588 119.062C97.8837 118.775 97.7961 118.449 97.7961 118.078C97.7961 117.707 97.8837 117.386 98.0588 117.103C98.2339 116.815 98.4925 116.59 98.8302 116.431C99.1679 116.269 99.5682 116.189 100.031 116.189C100.494 116.189 100.894 116.269 101.232 116.431C101.57 116.594 101.828 116.819 102.003 117.103C102.178 117.39 102.266 117.716 102.266 118.078C102.266 118.441 102.178 118.775 102.003 119.062ZM100.973 117.59C100.773 117.469 100.46 117.407 100.031 117.407C99.6015 117.407 99.2847 117.469 99.0887 117.59C98.8886 117.711 98.7927 117.874 98.7927 118.078C98.7927 118.283 98.8927 118.454 99.0887 118.574C99.2888 118.695 99.6015 118.758 100.031 118.758C100.46 118.758 100.777 118.695 100.973 118.574C101.173 118.454 101.274 118.287 101.274 118.078C101.274 117.87 101.173 117.711 100.973 117.59Z" fill="#FDEF9A"/>
<path d="M101.761 112.496C102.007 112.737 102.17 113.092 102.237 113.555H102.921V114.293H102.262C102.241 114.601 102.191 114.889 102.103 115.164C102.02 115.439 101.916 115.664 101.795 115.848L100.898 115.448C101.023 115.256 101.128 115.031 101.207 114.776C101.286 114.522 101.324 114.272 101.324 114.026C101.324 113.559 101.207 113.325 100.973 113.325C100.852 113.325 100.761 113.392 100.698 113.525C100.64 113.659 100.577 113.872 100.511 114.168C100.44 114.493 100.365 114.764 100.285 114.981C100.206 115.197 100.077 115.385 99.9018 115.539C99.7267 115.694 99.489 115.773 99.1888 115.773C98.8344 115.773 98.5342 115.648 98.284 115.393C98.0339 115.139 97.8754 114.772 97.8212 114.293H97.1458V113.555H97.8087C97.8296 113.321 97.8712 113.096 97.9296 112.883C97.9922 112.667 98.0714 112.479 98.1673 112.308L99.0721 112.683C98.8511 113.092 98.7385 113.492 98.7385 113.876C98.7385 114.118 98.776 114.293 98.8469 114.405C98.9178 114.518 99.0137 114.572 99.1263 114.572C99.2389 114.572 99.3264 114.505 99.3848 114.376C99.4432 114.247 99.5015 114.034 99.5641 113.742C99.635 113.413 99.71 113.142 99.7892 112.929C99.8685 112.712 99.9977 112.529 100.169 112.37C100.344 112.212 100.581 112.133 100.877 112.133C101.219 112.133 101.511 112.254 101.757 112.5L101.761 112.496Z" fill="#FDEF9A"/>
<path d="M97.8213 210.548H96.8582V207.2H97.6212L99.1264 208.809C99.2723 208.963 99.4016 209.068 99.5058 209.122C99.61 209.176 99.7143 209.201 99.8227 209.201C99.9603 209.201 100.069 209.155 100.148 209.059C100.227 208.963 100.265 208.826 100.265 208.647C100.265 208.488 100.227 208.342 100.156 208.209C100.085 208.075 99.9811 207.967 99.8477 207.879L100.352 206.975C100.632 207.141 100.848 207.379 101.011 207.679C101.169 207.984 101.253 208.342 101.253 208.755C101.253 209.084 101.199 209.372 101.094 209.626C100.986 209.877 100.836 210.077 100.636 210.214C100.436 210.356 100.206 210.427 99.9436 210.427C99.7101 210.427 99.4891 210.377 99.2806 210.277C99.0722 210.177 98.8387 209.981 98.576 209.697L97.8255 208.884V210.544L97.8213 210.548Z" fill="#FDEF9A"/>
<path d="M97.0373 211.814C97.2125 211.526 97.471 211.301 97.8087 211.142C98.1464 210.98 98.5467 210.9 99.0095 210.9C99.4723 210.9 99.8726 210.98 100.21 211.142C100.548 211.305 100.807 211.53 100.982 211.814C101.157 212.101 101.244 212.426 101.244 212.798C101.244 213.169 101.157 213.49 100.982 213.773C100.807 214.061 100.548 214.286 100.21 214.444C99.8726 214.607 99.4723 214.686 99.0095 214.686C98.5467 214.686 98.1464 214.607 97.8087 214.444C97.471 214.282 97.2125 214.057 97.0373 213.773C96.8622 213.486 96.7747 213.16 96.7747 212.798C96.7747 212.435 96.8622 212.101 97.0373 211.814ZM98.0672 213.285C98.2674 213.406 98.5801 213.469 99.0095 213.469C99.439 213.469 99.7559 213.406 99.9518 213.285C100.152 213.164 100.248 213.002 100.248 212.798C100.248 212.593 100.148 212.422 99.9518 212.301C99.7517 212.18 99.439 212.118 99.0095 212.118C98.5801 212.118 98.2632 212.18 98.0672 212.301C97.8671 212.422 97.767 212.589 97.767 212.798C97.767 213.006 97.8671 213.164 98.0672 213.285Z" fill="#FDEF9A"/>
<path d="M97.2792 218.382C97.0332 218.14 96.8706 217.785 96.8039 217.323H96.1201V216.585H96.7789C96.7998 216.276 96.8498 215.988 96.9373 215.713C97.0207 215.438 97.125 215.213 97.2459 215.029L98.1423 215.43C98.0173 215.621 97.913 215.847 97.8338 216.101C97.7546 216.355 97.717 216.605 97.717 216.851C97.717 217.318 97.8338 217.552 98.0673 217.552C98.1882 217.552 98.2799 217.485 98.3425 217.352C98.4009 217.218 98.4634 217.006 98.5301 216.71C98.601 216.384 98.676 216.118 98.7553 215.897C98.8345 215.68 98.9637 215.492 99.1389 215.338C99.314 215.184 99.5516 215.104 99.8518 215.104C100.206 215.104 100.506 215.229 100.757 215.484C101.007 215.738 101.165 216.105 101.219 216.585H101.895V217.323H101.232C101.211 217.556 101.169 217.781 101.111 217.994C101.049 218.211 100.969 218.398 100.873 218.569L99.9686 218.194C100.19 217.785 100.302 217.385 100.302 217.001C100.302 216.76 100.265 216.585 100.194 216.472C100.123 216.359 100.027 216.305 99.9144 216.305C99.8018 216.305 99.7142 216.372 99.6559 216.501C99.5975 216.63 99.5391 216.843 99.4766 217.135C99.4057 217.464 99.3307 217.735 99.2514 217.948C99.1722 218.165 99.043 218.348 98.872 218.507C98.6969 218.665 98.4592 218.744 98.1632 218.744C97.8213 218.744 97.5294 218.623 97.2834 218.377L97.2792 218.382Z" fill="#FDEF9A"/>
<path d="M97.8796 120.621H102.183V121.839H98.822V122.639H97.8796V120.625V120.621Z" fill="#FDEF9A"/>
<path d="M102.003 119.062C101.828 119.35 101.57 119.575 101.232 119.734C100.894 119.896 100.494 119.975 100.031 119.975C99.5682 119.975 99.1679 119.896 98.8302 119.734C98.4925 119.571 98.2339 119.346 98.0588 119.062C97.8837 118.775 97.7961 118.449 97.7961 118.078C97.7961 117.707 97.8837 117.386 98.0588 117.103C98.2339 116.815 98.4925 116.59 98.8302 116.431C99.1679 116.269 99.5682 116.189 100.031 116.189C100.494 116.189 100.894 116.269 101.232 116.431C101.57 116.594 101.828 116.819 102.003 117.103C102.178 117.39 102.266 117.716 102.266 118.078C102.266 118.441 102.178 118.775 102.003 119.062ZM100.973 117.59C100.773 117.469 100.46 117.407 100.031 117.407C99.6015 117.407 99.2847 117.469 99.0887 117.59C98.8886 117.711 98.7927 117.874 98.7927 118.078C98.7927 118.283 98.8927 118.454 99.0887 118.574C99.2888 118.695 99.6015 118.758 100.031 118.758C100.46 118.758 100.777 118.695 100.973 118.574C101.173 118.454 101.274 118.287 101.274 118.078C101.274 117.87 101.173 117.711 100.973 117.59Z" fill="#FDEF9A"/>
<path d="M101.761 112.496C102.007 112.737 102.17 113.092 102.237 113.555H102.921V114.293H102.262C102.241 114.601 102.191 114.889 102.103 115.164C102.02 115.439 101.916 115.664 101.795 115.848L100.898 115.448C101.023 115.256 101.128 115.031 101.207 114.776C101.286 114.522 101.324 114.272 101.324 114.026C101.324 113.559 101.207 113.325 100.973 113.325C100.852 113.325 100.761 113.392 100.698 113.525C100.64 113.659 100.577 113.872 100.511 114.168C100.44 114.493 100.365 114.764 100.285 114.981C100.206 115.197 100.077 115.385 99.9018 115.539C99.7267 115.694 99.489 115.773 99.1888 115.773C98.8344 115.773 98.5342 115.648 98.284 115.393C98.0339 115.139 97.8754 114.772 97.8212 114.293H97.1458V113.555H97.8087C97.8296 113.321 97.8712 113.096 97.9296 112.883C97.9922 112.667 98.0714 112.479 98.1673 112.308L99.0721 112.683C98.8511 113.092 98.7385 113.492 98.7385 113.876C98.7385 114.118 98.776 114.293 98.8469 114.405C98.9178 114.518 99.0137 114.572 99.1263 114.572C99.2389 114.572 99.3264 114.505 99.3848 114.376C99.4432 114.247 99.5015 114.034 99.5641 113.742C99.635 113.413 99.71 113.142 99.7892 112.929C99.8685 112.712 99.9977 112.529 100.169 112.37C100.344 112.212 100.581 112.133 100.877 112.133C101.219 112.133 101.511 112.254 101.757 112.5L101.761 112.496Z" fill="#FDEF9A"/>
<path d="M143.173 142.38L143.653 143.219L140.747 144.882L140.367 144.223L141.013 142.118C141.076 141.913 141.105 141.751 141.097 141.634C141.093 141.517 141.059 141.413 141.009 141.321C140.938 141.2 140.847 141.13 140.726 141.109C140.605 141.088 140.467 141.121 140.309 141.213C140.171 141.292 140.059 141.396 139.979 141.526C139.9 141.655 139.854 141.797 139.85 141.959L138.816 141.972C138.825 141.647 138.92 141.338 139.104 141.05C139.287 140.763 139.558 140.513 139.917 140.308C140.2 140.146 140.48 140.046 140.751 140.016C141.022 139.983 141.268 140.016 141.489 140.121C141.71 140.221 141.885 140.387 142.014 140.617C142.131 140.821 142.198 141.038 142.214 141.263C142.231 141.492 142.181 141.793 142.06 142.164L141.731 143.219L143.169 142.393L143.173 142.38Z" fill="#FDEF9A"/>
<path d="M146.592 141.05C146.505 141.388 146.276 141.7 145.909 141.988L146.246 142.58L145.608 142.947L145.283 142.376C145.008 142.509 144.729 142.609 144.449 142.672C144.17 142.734 143.92 142.759 143.703 142.743L143.603 141.767C143.832 141.78 144.078 141.759 144.337 141.7C144.595 141.642 144.833 141.55 145.046 141.429C145.45 141.196 145.596 140.979 145.479 140.779C145.417 140.675 145.317 140.629 145.171 140.641C145.025 140.658 144.808 140.708 144.52 140.8C144.203 140.9 143.932 140.971 143.703 141.008C143.474 141.046 143.249 141.029 143.028 140.954C142.807 140.879 142.619 140.712 142.469 140.45C142.294 140.145 142.252 139.82 142.348 139.474C142.444 139.128 142.686 138.811 143.073 138.523L142.736 137.935L143.374 137.568L143.703 138.144C143.916 138.044 144.132 137.969 144.349 137.914C144.566 137.86 144.77 137.835 144.966 137.835L145.091 138.807C144.624 138.819 144.228 138.919 143.891 139.111C143.682 139.232 143.545 139.349 143.486 139.465C143.428 139.582 143.424 139.691 143.482 139.791C143.54 139.891 143.64 139.932 143.782 139.916C143.924 139.899 144.137 139.849 144.42 139.757C144.741 139.653 145.012 139.586 145.237 139.549C145.463 139.511 145.688 139.528 145.913 139.603C146.134 139.674 146.321 139.841 146.472 140.099C146.643 140.395 146.68 140.708 146.592 141.046V141.05Z" fill="#FDEF9A"/>
<path d="M61.0545 189.37L58.9155 185.638L59.9704 185.033L61.6424 187.952L62.3345 187.556L62.8015 188.373L61.0545 189.374V189.37Z" fill="#FDEF9A"/>
<path d="M56.9768 189.476C56.6057 189.406 56.3138 189.193 56.1137 188.839C55.9802 188.609 55.9177 188.359 55.926 188.101C55.9344 187.838 56.0261 187.579 56.2054 187.325C56.3847 187.071 56.6515 186.841 57.0101 186.633C57.2728 186.483 57.5521 186.366 57.844 186.283C58.14 186.199 58.4111 186.162 58.6654 186.174L58.7405 187.187C58.5362 187.175 58.3277 187.187 58.115 187.242C57.9066 187.292 57.7106 187.367 57.5271 187.471C57.3437 187.575 57.2186 187.692 57.1519 187.825C57.0852 187.955 57.0852 188.084 57.1519 188.209C57.2228 188.334 57.3312 188.397 57.4729 188.401C57.6147 188.401 57.8232 188.33 58.0942 188.171L59.1074 187.592L60.1706 189.881L57.794 191.244L57.327 190.427L58.8322 189.564L58.5695 188.993L58.3193 189.135C57.7981 189.435 57.3478 189.547 56.9768 189.481V189.476Z" fill="#FDEF9A"/>
<path d="M52.4902 189.807C52.5778 189.47 52.8071 189.157 53.174 188.869L52.8363 188.277L53.4742 187.91L53.7994 188.481C54.0746 188.348 54.354 188.248 54.6333 188.185C54.9127 188.123 55.1629 188.098 55.3797 188.114L55.4797 189.09C55.2504 189.078 55.0044 189.098 54.7459 189.157C54.4874 189.215 54.2497 189.307 54.0371 189.428C53.6326 189.661 53.4867 189.878 53.6035 190.078C53.666 190.183 53.7661 190.228 53.912 190.216C54.0579 190.199 54.2748 190.149 54.5625 190.057C54.8793 189.957 55.1504 189.887 55.3797 189.849C55.609 189.811 55.8342 189.828 56.0551 189.903C56.2761 189.978 56.4638 190.145 56.6139 190.408C56.789 190.712 56.8307 191.037 56.7348 191.383C56.6389 191.729 56.397 192.046 56.0093 192.334L56.347 192.922L55.7091 193.289L55.3797 192.713C55.167 192.814 54.9502 192.889 54.7334 192.943C54.5166 192.997 54.3123 193.022 54.1163 193.022L53.9912 192.05C54.4582 192.038 54.8543 191.938 55.1921 191.746C55.4005 191.625 55.5381 191.508 55.5965 191.392C55.6549 191.275 55.659 191.167 55.6007 191.066C55.5423 190.966 55.4422 190.925 55.3005 190.941C55.1587 190.958 54.9461 191.012 54.6625 191.1C54.3415 191.204 54.0704 191.271 53.8453 191.308C53.6201 191.346 53.395 191.329 53.1698 191.254C52.9447 191.183 52.7612 191.016 52.6111 190.754C52.4402 190.458 52.4026 190.145 52.4902 189.807Z" fill="#FDEF9A"/>
<path d="M142.669 188.811L140.492 192.522L139.442 191.905L141.143 189.003L140.455 188.598L140.93 187.785L142.669 188.807V188.811Z" fill="#FDEF9A"/>
<path d="M144.087 194.139C143.749 194.231 143.365 194.189 142.932 194.014L142.586 194.602L141.948 194.231L142.281 193.664C142.027 193.488 141.802 193.297 141.606 193.088C141.41 192.876 141.268 192.671 141.172 192.475L141.969 191.904C142.069 192.113 142.21 192.313 142.39 192.509C142.569 192.705 142.765 192.863 142.978 192.988C143.382 193.226 143.64 193.242 143.757 193.042C143.82 192.938 143.807 192.825 143.724 192.705C143.64 192.588 143.486 192.425 143.265 192.217C143.023 191.992 142.827 191.791 142.677 191.612C142.531 191.433 142.435 191.229 142.39 190.999C142.344 190.77 142.398 190.524 142.548 190.265C142.727 189.961 142.99 189.765 143.336 189.678C143.682 189.59 144.078 189.64 144.52 189.832L144.862 189.248L145.5 189.619L145.162 190.19C145.354 190.328 145.525 190.474 145.679 190.636C145.834 190.799 145.959 190.966 146.055 191.133L145.275 191.721C145.033 191.32 144.745 191.024 144.416 190.832C144.208 190.712 144.037 190.653 143.907 190.657C143.774 190.662 143.682 190.716 143.624 190.816C143.565 190.916 143.578 191.024 143.661 191.137C143.745 191.254 143.899 191.412 144.116 191.612C144.362 191.837 144.558 192.042 144.704 192.217C144.85 192.396 144.946 192.596 144.996 192.83C145.041 193.059 144.996 193.305 144.841 193.564C144.67 193.855 144.416 194.047 144.078 194.139H144.087Z" fill="#FDEF9A"/>
<path style="mix-blend-mode:multiply" opacity="0.7" d="M105.257 167.011C105.257 170.757 102.223 173.791 98.478 173.791C94.7329 173.791 91.699 170.757 91.699 167.011C91.699 163.266 94.7329 160.232 98.478 160.232C102.223 160.232 105.257 163.266 105.257 167.011Z" fill="url(#paint0_radial_9279_5833)"/>
<path d="M103.408 165.471C103.408 167.682 101.613 169.476 99.4023 169.476C97.1911 169.476 95.3965 167.682 95.3965 165.471C95.3965 163.259 97.1911 161.465 99.4023 161.465C101.613 161.465 103.408 163.259 103.408 165.471Z" fill="white"/>
<path d="M100.019 107.848L102.792 102.918H97.2456L100.019 107.848Z" fill="white"/>
<path d="M99.5288 242.197C130.672 242.197 155.918 238.61 155.918 234.185C155.918 229.761 130.672 226.174 99.5288 226.174C68.3858 226.174 43.1394 229.761 43.1394 234.185C43.1394 238.61 68.3858 242.197 99.5288 242.197Z" fill="#302424"/>
<path d="M300.286 74.8356C300.286 74.8356 329.639 91.0991 340.51 54.332C340.51 54.332 349.779 58.1714 350.358 63.4591C350.358 63.4591 332.566 107.708 296.175 88.3629L300.292 74.8356H300.286Z" fill="#302424"/>
<path d="M339.998 48.5953C339.998 48.5953 330.686 52.2129 337.262 58.8071C346.266 67.8355 358.598 69.1482 359.152 57.063C359.152 57.063 364.81 55.6332 365.796 52.4902C365.796 52.4902 372.026 50.4442 376.402 43.2029C380.894 35.7644 374.756 32.6646 370.282 33.7615C370.282 33.7615 370.695 24.086 361.371 25.8917C361.371 25.8917 357.008 9.62196 344.565 29.7927C344.565 29.7927 333.151 13.751 324.604 27.1489C321.793 31.5553 330.501 31.432 334.507 36.8799C337.2 40.5468 335.493 45.3352 339.998 48.5953Z" fill="#FFFDFF"/>
<path d="M339.998 48.5953C339.998 48.5953 330.686 52.2129 337.262 58.8071C346.266 67.8355 358.598 69.1482 359.152 57.063C359.152 57.063 364.81 55.6332 365.796 52.4902C365.796 52.4902 372.026 50.4442 376.402 43.2029C380.894 35.7644 374.756 32.6646 370.282 33.7615C370.282 33.7615 370.695 24.086 361.371 25.8917C361.371 25.8917 357.008 9.62196 344.565 29.7927C344.565 29.7927 333.151 13.751 324.604 27.1489C321.793 31.5553 330.501 31.432 334.507 36.8799C337.2 40.5468 335.493 45.3352 339.998 48.5953Z" stroke="#302424" stroke-width="5" stroke-linecap="round" stroke-linejoin="round"/>
<path d="M346.562 37.3534C346.562 37.3534 345.304 42.8321 351.59 41.4578C357.87 40.0773 362.116 30.7592 361.377 25.8906" stroke="#302424" stroke-width="5" stroke-linecap="round" stroke-linejoin="round"/>
<path d="M355.781 39.4934C355.781 39.4934 350.746 45.4343 357.045 46.7347C360.989 47.5481 370.936 40.1158 370.289 33.7559" stroke="#302424" stroke-width="5" stroke-linecap="round" stroke-linejoin="round"/>
<path d="M365.802 52.4901C365.802 52.4901 355.054 54.1479 361.13 45.8281" stroke="#302424" stroke-width="5" stroke-linecap="round" stroke-linejoin="round"/>
<path d="M359.152 57.0657C359.152 57.0657 355.449 58.7358 349.175 55.4141" stroke="#302424" stroke-width="5" stroke-linecap="round" stroke-linejoin="round"/>
<path d="M198.524 169.937C198.524 169.937 195.443 166.609 190.439 168.717C190.439 168.717 174.563 212.362 184.695 237.327C184.695 237.327 189.453 239.373 191.862 236.458L198.524 169.937Z" fill="#FFFDFF"/>
<path d="M198.524 169.937C198.524 169.937 195.443 166.609 190.439 168.717C190.439 168.717 174.563 212.362 184.695 237.327C184.695 237.327 189.453 239.373 191.862 236.458" stroke="#302424" stroke-width="5" stroke-linecap="round" stroke-linejoin="round"/>
<path d="M221.961 183.179C221.961 183.179 212.581 167.347 198.524 169.942C198.524 169.942 181.016 213.771 191.628 236.869C191.628 236.869 209.327 234.256 212.501 220.865C215.361 208.81 212.933 205.908 212.933 205.908C212.933 205.908 219.249 206.376 221.597 201.458L221.955 183.173L221.961 183.179Z" fill="#4AA04F"/>
<path d="M191.88 191.371C191.88 191.371 217.746 197.743 215.718 216.7C213.691 235.651 191.628 236.871 191.628 236.871C191.628 236.871 179.142 220.207 191.874 191.371H191.88Z" fill="#FFFDFF"/>
<path d="M198.524 169.936C212.581 167.348 221.961 183.174 221.961 183.174L221.604 201.459C219.256 206.377 212.939 205.909 212.939 205.909C212.939 205.909 216.975 210.506 215.416 218.721C212.421 234.498 191.634 236.864 191.634 236.864C191.634 236.864 180.689 221.106 198.53 169.936" stroke="#302424" stroke-width="5" stroke-linecap="round" stroke-linejoin="round"/>
<path d="M232.253 174.654C235.914 168.713 242.797 173.021 242.995 184.693C243.149 193.703 239.13 201.357 234.194 195.915C234.194 195.915 227.341 197.228 220.796 198.83C220.796 198.83 212.865 196.02 215.237 178.234L232.253 174.654Z" fill="#FFFDFF"/>
<path d="M232.253 174.654C235.914 168.713 242.797 173.021 242.995 184.693C243.149 193.703 239.13 201.357 234.194 195.915C234.194 195.915 227.341 197.228 220.796 198.83C220.796 198.83 212.865 196.02 215.237 178.234L232.253 174.654Z" stroke="#302424" stroke-width="5" stroke-linecap="round" stroke-linejoin="round"/>
<path d="M212.298 194.816C212.298 194.816 217.795 197.553 217.308 205.238" stroke="#FFFDFF" stroke-width="5" stroke-linecap="round" stroke-linejoin="round"/>
<path d="M235.821 176.505C235.821 176.505 273.124 177.116 250.938 143.689C250.938 143.689 258.414 137.322 265.569 137.865C265.569 137.865 297.997 182.6 236.801 191.986C236.801 191.986 232.167 186.742 235.827 176.505H235.821Z" fill="#302424"/>
<path d="M228.938 227.247C228.938 227.247 226.152 230.827 229.043 235.425C229.043 235.425 274.684 244.01 297.677 229.959C297.677 229.959 298.928 224.93 295.656 223.025L228.938 227.247Z" fill="#FFFDFF"/>
<path d="M228.938 227.247C228.938 227.247 226.152 230.827 229.043 235.425C229.043 235.425 274.684 244.01 297.677 229.959C297.677 229.959 298.928 224.93 295.656 223.025" stroke="#302424" stroke-width="5" stroke-linecap="round" stroke-linejoin="round"/>
<path d="M238.2 201.976C238.2 201.976 224.1 213.802 228.938 227.25C228.938 227.25 275.029 237.412 296.1 223.188C296.1 223.188 290.646 206.148 276.921 205.193C264.565 204.33 262.093 207.196 262.093 207.196C262.093 207.196 261.533 200.885 256.3 199.369L238.2 201.982V201.976Z" fill="#4AA04F"/>
<path d="M251.161 230.329C251.161 230.329 253.256 203.768 272.287 202.695C291.317 201.617 296.1 223.193 296.1 223.193C296.1 223.193 281.685 238.218 251.161 230.329Z" fill="#FFFDFF"/>
<path d="M228.938 227.248C224.1 213.795 238.2 201.974 238.2 201.974L256.3 199.361C261.533 200.884 262.093 207.188 262.093 207.188C262.093 207.188 265.976 202.461 274.333 202.665C290.387 203.059 296.093 223.187 296.093 223.187C296.093 223.187 282.326 236.547 228.932 227.248" stroke="#302424" stroke-width="5" stroke-linecap="round" stroke-linejoin="round"/>
<path d="M228.112 193.206C221.653 190.556 224.79 183.068 236.278 180.979C245.14 179.364 253.349 182.088 248.782 187.844C248.782 187.844 251.192 194.389 253.835 200.589C253.835 200.589 252.35 208.872 234.41 209.414L228.112 193.206Z" fill="#FFFDFF"/>
<path d="M228.112 193.206C221.653 190.556 224.79 183.068 236.278 180.979C245.14 179.364 253.349 182.088 248.782 187.844C248.782 187.844 251.192 194.389 253.835 200.589C253.835 200.589 252.35 208.872 234.41 209.414L228.112 193.206Z" stroke="#302424" stroke-width="5" stroke-linecap="round" stroke-linejoin="round"/>
<path d="M251.253 209.623C251.253 209.623 253.059 203.75 260.725 202.992" stroke="#FFFDFF" stroke-width="5" stroke-linecap="round" stroke-linejoin="round"/>
<path d="M218.208 146.833C218.208 146.833 223.786 179.261 230.614 190.718C230.614 190.718 240.123 189.984 245.244 184.376C245.244 184.376 237.202 167.675 234.515 144.639C234.515 144.639 223.114 144.885 218.208 146.833Z" fill="#302424"/>
<path d="M243.91 167.27C290.1 167.27 327.545 129.825 327.545 83.635C327.545 37.4447 290.1 0 243.91 0C197.72 0 160.275 37.4447 160.275 83.635C160.275 129.825 197.72 167.27 243.91 167.27Z" fill="#302424"/>
<path d="M243.91 155.53C283.787 155.53 316.113 123.272 316.113 83.4806C316.113 43.6891 283.787 11.4316 243.91 11.4316C204.033 11.4316 171.707 43.6891 171.707 83.4806C171.707 123.272 204.033 155.53 243.91 155.53Z" fill="white"/>
<path fill-rule="evenodd" clip-rule="evenodd" d="M241.753 73.8343L182.307 70.6358C188.1 41.8372 213.54 20.1504 244.04 20.1504C251.534 20.1504 258.719 21.4569 265.387 23.8604L241.747 73.8281L241.753 73.8343Z" fill="#5FDC98"/>
<path fill-rule="evenodd" clip-rule="evenodd" d="M181.038 83.127L236.139 86.0912L211.741 137.667C193.351 126.673 181.038 106.564 181.038 83.583C181.038 83.4289 181.038 83.281 181.038 83.1331V83.127Z" fill="#F1592A"/>
<path fill-rule="evenodd" clip-rule="evenodd" d="M246.227 92.9902L274.071 139.334C265.073 144.289 254.732 147.112 243.725 147.112C236.231 147.112 229.046 145.805 222.377 143.402L246.221 92.9902H246.227Z" fill="#24ABE2"/>
<path fill-rule="evenodd" clip-rule="evenodd" d="M252.594 79.5048L284.221 132.141C298.056 120.592 306.857 103.213 306.857 83.7818C306.857 60.8008 294.544 40.6917 276.154 29.6973L252.594 79.5048Z" fill="#FF259B"/>
<path d="M161.667 70.873C161.667 70.873 132.307 82.003 127.907 96.9108C123.507 111.819 163.583 112.737 163.583 112.737L164.859 103.067C164.859 103.067 143.548 103.197 141.256 97.3175C138.963 91.4321 165.851 81.7812 165.851 81.7812C165.851 81.7812 167.885 73.0855 161.661 70.873H161.667Z" fill="#302424"/>
<path d="M171.355 100.778C171.355 100.778 178.688 96.2419 188.888 95.49C199.087 94.732 200.036 102.14 200.036 102.14C200.036 102.14 211.604 100.057 212.128 111.926C212.479 119.993 209.108 122.126 206.84 122.126C206.84 122.126 203.851 133.108 195.802 129.804C191.051 127.851 199.106 122.126 192.863 119.864C192.863 119.864 187.828 133.65 171.361 123.45C171.361 123.45 167.429 129.632 162.092 125.065C149.249 114.071 161.39 86.4307 171.361 100.784L171.355 100.778Z" fill="#FFFDFF"/>
<path d="M171.355 100.778C171.355 100.778 178.688 96.2419 188.888 95.49C199.087 94.732 200.036 102.14 200.036 102.14C200.036 102.14 211.604 100.057 212.128 111.926C212.479 119.993 209.108 122.125 206.84 122.125C206.84 122.125 204.566 133.391 195.802 129.804C191.045 127.857 198.964 122.125 192.863 119.864C192.863 119.864 187.828 133.65 171.361 123.45C171.361 123.45 167.429 129.632 162.092 125.065C149.249 114.071 161.39 86.4307 171.361 100.784L171.355 100.778Z" stroke="#302424" stroke-width="5" stroke-linecap="round" stroke-linejoin="round"/>
<path d="M187.89 101.493C187.89 101.493 193.96 100.772 200.03 102.14" stroke="#302424" stroke-width="5" stroke-linecap="round" stroke-linejoin="round"/>
<path d="M203.839 108.82C203.839 108.82 209.533 113.584 206.828 122.126" stroke="#302424" stroke-width="5" stroke-linecap="round" stroke-linejoin="round"/>
<path d="M169.715 110.184C169.715 110.184 165.235 116.655 171.355 123.44" stroke="#302424" stroke-width="5" stroke-linecap="round" stroke-linejoin="round"/>
<path d="M230.698 72.2533C237.055 71.6208 241.4 62.9524 240.403 52.892C239.407 42.8317 233.446 35.1889 227.089 35.8215C220.732 36.454 216.386 45.1223 217.383 55.1827C218.38 65.2431 224.341 72.8859 230.698 72.2533Z" fill="white"/>
<path d="M230.226 35.7831C224.892 36.5469 222.678 43.2114 222.814 50.3905L232.343 53.5098L223.704 57.4892C225.365 64.5558 229.231 70.3119 234.533 69.0578C245.547 66.445 240.958 34.2557 230.234 35.7831H230.226Z" fill="#302424"/>
<path d="M216.87 38.8629C216.87 38.8629 224.843 19.1264 235.841 42.4966" stroke="#302424" stroke-width="5" stroke-linecap="round" stroke-linejoin="round"/>
<path d="M217.592 80.4494C224.258 73.198 236.514 92.8943 246.1 93.8429C255.686 94.7916 263.996 88.1833 270.461 91.8411C279.004 96.6647 270.204 119.705 241.119 114.255C218.779 110.074 208.801 90.0082 217.592 80.4494Z" fill="#FFFDFF"/>
<path d="M217.592 80.4494C224.258 73.198 236.514 92.8943 246.1 93.8429C255.686 94.7916 263.996 88.1833 270.461 91.8411C279.004 96.6647 270.204 119.705 241.119 114.255C218.779 110.074 208.801 90.0082 217.592 80.4494Z" stroke="#302424" stroke-width="5" stroke-linecap="round" stroke-linejoin="round"/>
<path d="M232.046 85.1367L218.667 100.829" stroke="#302424" stroke-width="5" stroke-linecap="round" stroke-linejoin="round"/>
<path d="M246.1 93.8438L238.48 113.685" stroke="#302424" stroke-width="5" stroke-linecap="round" stroke-linejoin="round"/>
<path d="M258.108 92.1875L262.183 112.599" stroke="#302424" stroke-width="5" stroke-linecap="round" stroke-linejoin="round"/>
<path d="M205.993 86.8093C205.993 86.8093 224.073 83.3122 216.557 66.7754" stroke="#302424" stroke-width="5" stroke-linecap="round" stroke-linejoin="round"/>
<path d="M275.257 83.6439C281.614 83.0114 285.959 74.3431 284.962 64.2827C283.966 54.2223 278.005 46.5795 271.648 47.2121C265.291 47.8446 260.945 56.513 261.942 66.5734C262.939 76.6337 268.9 84.2765 275.257 83.6439Z" fill="white"/>
<path d="M274.783 47.1796C269.448 47.9433 267.235 54.6079 267.371 61.787L276.9 64.9063L268.261 68.8857C269.922 75.9523 273.788 81.7084 279.09 80.4543C290.104 77.8415 285.515 45.6521 274.791 47.1796H274.783Z" fill="#302424"/>
<path d="M261.427 50.2593C261.427 50.2593 269.4 30.5229 280.398 53.8931" stroke="#302424" stroke-width="5" stroke-linecap="round" stroke-linejoin="round"/>
<path d="M149.293 215.235C176.777 187.751 176.777 143.19 149.293 115.706C121.809 88.2222 77.2485 88.2222 49.7644 115.706C22.2803 143.19 22.2803 187.751 49.7644 215.235C77.2485 242.719 121.809 242.719 149.293 215.235Z" fill="#00030B"/>
<path d="M99.44 233.568C98.8924 233.568 98.4536 233.125 98.4536 232.582C98.4536 232.034 98.8966 231.596 99.44 231.596C99.9875 231.596 100.426 232.039 100.426 232.582C100.426 233.129 99.9833 233.568 99.44 233.568ZM81.8187 231.278C81.292 231.132 80.9827 230.592 81.1207 230.066C81.2586 229.539 81.8061 229.222 82.3327 229.368C82.8594 229.506 83.1687 230.045 83.0307 230.572C82.9137 231.019 82.5125 231.307 82.0778 231.307C81.9942 231.307 81.9064 231.295 81.8228 231.274L81.8187 231.278ZM115.858 230.559C115.711 230.032 116.029 229.493 116.556 229.347C117.082 229.209 117.621 229.518 117.759 230.045C117.906 230.572 117.588 231.111 117.061 231.257C116.978 231.278 116.89 231.29 116.806 231.29C116.372 231.29 115.979 231.002 115.858 230.559ZM65.3927 224.478C64.9204 224.206 64.7533 223.604 65.0291 223.128C65.3008 222.66 65.9026 222.497 66.3791 222.764C66.8472 223.04 67.0102 223.646 66.7428 224.114C66.5588 224.432 66.2245 224.607 65.8859 224.607C65.7146 224.607 65.5432 224.57 65.3927 224.473V224.478ZM132.129 224.085C131.857 223.617 132.016 223.011 132.492 222.735C132.961 222.463 133.567 222.622 133.842 223.098C134.114 223.567 133.955 224.173 133.479 224.448C133.328 224.532 133.157 224.582 132.986 224.582C132.643 224.582 132.313 224.402 132.129 224.089V224.085ZM51.2865 213.657C50.9062 213.276 50.8978 212.649 51.2865 212.261C51.6752 211.88 52.2938 211.88 52.6825 212.261C53.0712 212.649 53.0712 213.272 52.6825 213.657C52.4902 213.853 52.2395 213.945 51.9845 213.945C51.7337 213.945 51.4829 213.853 51.2865 213.657ZM146.172 213.611C145.792 213.23 145.792 212.603 146.172 212.215C146.561 211.834 147.188 211.834 147.573 212.215C147.953 212.603 147.953 213.23 147.573 213.611C147.376 213.807 147.125 213.899 146.866 213.899C146.615 213.899 146.365 213.807 146.168 213.611H146.172ZM40.4487 199.575C40.1729 199.103 40.3317 198.501 40.804 198.225C41.2763 197.954 41.8823 198.113 42.154 198.589C42.4299 199.057 42.2669 199.663 41.7987 199.931C41.6399 200.023 41.4686 200.069 41.3056 200.069C40.9628 200.069 40.6285 199.889 40.4487 199.575ZM157.044 199.876C156.575 199.601 156.412 198.994 156.688 198.526C156.96 198.054 157.562 197.887 158.038 198.163C158.506 198.434 158.669 199.036 158.394 199.513C158.21 199.83 157.879 200.006 157.537 200.006C157.374 200.006 157.202 199.96 157.044 199.876ZM33.6234 183.162C33.4855 182.635 33.7948 182.088 34.3214 181.95C34.848 181.812 35.3956 182.121 35.5335 182.648C35.6714 183.175 35.3621 183.714 34.8355 183.86C34.7477 183.881 34.6641 183.894 34.5805 183.894C34.1459 183.894 33.7446 183.605 33.6276 183.162H33.6234ZM163.998 183.789C163.463 183.651 163.154 183.104 163.292 182.577C163.438 182.05 163.978 181.741 164.504 181.879C165.031 182.017 165.34 182.564 165.202 183.091C165.085 183.534 164.688 183.822 164.249 183.822C164.17 183.822 164.086 183.81 163.998 183.789ZM31.3037 165.541C31.3037 164.993 31.7468 164.554 32.2859 164.554C32.8335 164.554 33.2723 164.997 33.2807 165.541C33.2807 166.08 32.8376 166.527 32.2943 166.527C31.7468 166.527 31.3079 166.084 31.3079 165.541H31.3037ZM165.528 165.47V165.403V165.323C165.528 164.776 165.971 164.337 166.515 164.337C167.054 164.337 167.501 164.78 167.501 165.319V165.399V165.47C167.501 166.017 167.058 166.456 166.515 166.456C165.967 166.456 165.528 166.013 165.528 165.47ZM34.288 149.123C33.7613 148.985 33.4437 148.446 33.5816 147.919C33.7279 147.393 34.2671 147.075 34.7937 147.217C35.3203 147.364 35.638 147.903 35.4917 148.429C35.3788 148.872 34.9776 149.161 34.5387 149.161C34.4593 149.161 34.3757 149.152 34.288 149.127V149.123ZM163.259 148.216C163.112 147.69 163.422 147.15 163.957 147.004C164.483 146.866 165.022 147.176 165.16 147.702C165.307 148.229 164.997 148.768 164.471 148.914C164.387 148.939 164.291 148.948 164.207 148.948C163.773 148.948 163.38 148.659 163.259 148.216ZM40.7371 132.831C40.2648 132.559 40.0976 131.957 40.3735 131.489C40.6452 131.017 41.247 130.85 41.7235 131.126C42.1916 131.397 42.3546 131.999 42.0871 132.467C41.9032 132.789 41.5689 132.961 41.2261 132.961C41.0631 132.961 40.8918 132.923 40.7371 132.831ZM156.617 132.292C156.341 131.82 156.504 131.214 156.972 130.942C157.445 130.666 158.051 130.825 158.323 131.297C158.598 131.765 158.44 132.371 157.967 132.647C157.808 132.739 157.637 132.781 157.474 132.781C157.131 132.781 156.801 132.61 156.617 132.292ZM51.1862 118.771C50.8058 118.39 50.8058 117.763 51.1862 117.375C51.5749 116.994 52.2018 116.986 52.5822 117.375C52.9709 117.755 52.9709 118.382 52.5822 118.771C52.3899 118.963 52.1391 119.059 51.8842 119.059C51.6334 119.059 51.3826 118.967 51.1862 118.771ZM146.076 118.624C145.688 118.236 145.688 117.609 146.068 117.228C146.457 116.84 147.084 116.84 147.464 117.22C147.853 117.609 147.853 118.236 147.472 118.616C147.276 118.813 147.025 118.905 146.766 118.905C146.515 118.905 146.264 118.813 146.076 118.62V118.624ZM64.9037 107.883C64.632 107.411 64.7909 106.805 65.2673 106.533C65.7355 106.257 66.3415 106.416 66.6174 106.888C66.889 107.356 66.7302 107.962 66.2537 108.238C66.1033 108.33 65.9319 108.368 65.7605 108.368C65.4178 108.368 65.0876 108.196 64.9037 107.879V107.883ZM132.363 108.134C131.895 107.858 131.732 107.26 131.999 106.784C132.275 106.311 132.873 106.152 133.349 106.42C133.822 106.692 133.989 107.294 133.713 107.77C133.533 108.088 133.199 108.263 132.856 108.263C132.693 108.263 132.522 108.217 132.363 108.129V108.134ZM80.9786 100.911C80.8323 100.385 81.1499 99.8371 81.6765 99.6991C82.2032 99.5529 82.7424 99.8705 82.8803 100.397C83.0266 100.924 82.7089 101.463 82.1823 101.601C82.0987 101.626 82.0109 101.638 81.9273 101.638C81.4926 101.638 81.0998 101.35 80.9786 100.907V100.911ZM116.413 101.551C115.878 101.413 115.569 100.874 115.711 100.347C115.849 99.8204 116.388 99.5027 116.923 99.6406C117.45 99.7786 117.759 100.318 117.621 100.853C117.504 101.296 117.103 101.584 116.668 101.584C116.581 101.584 116.497 101.572 116.418 101.551H116.413ZM98.3031 98.3575C98.3031 97.81 98.7461 97.3711 99.2895 97.3711C99.837 97.3711 100.276 97.8141 100.276 98.3533C100.276 98.9008 99.8328 99.3481 99.2895 99.3481C98.7503 99.3481 98.3031 98.905 98.3031 98.3617V98.3575Z" fill="white"/>
<path d="M144.187 210.129C168.851 185.465 168.851 145.477 144.187 120.813C119.523 96.1489 79.5347 96.1489 54.8708 120.813C30.2069 145.477 30.2069 185.465 54.8708 210.129C79.5347 234.793 119.523 234.793 144.187 210.129Z" fill="white"/>
<path d="M161.338 165.469C161.338 199.676 133.606 227.405 99.4045 227.405C65.2026 227.405 37.4666 199.676 37.4666 165.469C37.4666 131.262 65.1942 103.533 99.4045 103.533C133.615 103.533 161.338 131.262 161.338 165.469Z" fill="#00030B"/>
<path d="M54.5707 207.846L99.5307 165.471L40.3401 183.225C43.1337 192.548 48.0662 200.945 54.5707 207.846Z" fill="#5FDC98"/>
<path d="M99.535 227.257C104.43 227.257 109.187 226.686 113.753 225.61L99.5309 165.473L85.3086 225.61C89.8742 226.686 94.6358 227.257 99.5309 227.257H99.535Z" fill="#5FDC98"/>
<path d="M158.726 183.225L99.5349 165.471L144.495 207.846C150.999 200.945 155.932 192.548 158.726 183.225Z" fill="#5FDC98"/>
<path d="M144.491 123.096L99.5305 165.471L158.721 147.717C155.928 138.394 150.995 129.996 144.491 123.096Z" fill="#5FDC98"/>
<path d="M40.3401 147.717L99.5307 165.471L54.5707 123.096C48.0662 129.996 43.1337 138.394 40.3401 147.717Z" fill="#5FDC98"/>
<path d="M99.535 103.686C94.64 103.686 89.8784 104.257 85.3127 105.333L99.535 165.47L113.753 105.333C109.187 104.257 104.426 103.686 99.535 103.686Z" fill="#5FDC98"/>
<path d="M81.5809 224.588L99.5307 165.473L56.9932 210.299C64.0522 217 72.5038 221.836 81.5809 224.588Z" fill="#FF9500"/>
<path d="M130.244 219.081C134.488 216.65 138.337 213.785 141.764 210.583L99.5308 165.469L117.084 224.718C121.579 223.384 125.995 221.511 130.244 219.076V219.081Z" fill="#00979E"/>
<path d="M159.718 151.457L99.5308 165.475L159.605 179.897C161.819 170.674 161.928 160.939 159.718 151.461V151.457Z" fill="#FF9500"/>
<path d="M117.481 106.354L99.5308 165.469L142.068 120.642C135.009 113.942 126.558 109.105 117.481 106.354Z" fill="#00979E"/>
<path d="M39.3437 179.487L99.5308 165.469L39.4563 151.051C37.2422 160.274 37.1338 170.01 39.3437 179.487Z" fill="#00979E"/>
<path d="M68.8222 111.858C64.5734 114.289 60.7291 117.153 57.3018 120.355L99.5349 165.47L81.9812 106.221C77.4864 107.555 73.0709 109.427 68.8222 111.858Z" fill="#FF9500"/>
<g style="mix-blend-mode:multiply">
<path d="M120.75 132.147L121.584 132.631L119.653 135.967L118.994 135.583L117.856 132.414L116.797 134.245L115.963 133.761L117.823 130.555L118.482 130.938L119.624 134.107L120.758 132.152L120.75 132.147Z" fill="#690101"/>
<path d="M122.768 128.707L123.581 129.179L121.851 132.168L118.127 130.012L119.82 127.094L120.633 127.565L119.545 129.441L120.17 129.804L121.129 128.149L121.917 128.603L120.958 130.258L121.638 130.655L122.764 128.707H122.768Z" fill="#690101"/>
<path d="M123.877 126.395L123.543 126.971L124.532 127.542L123.923 128.597L120.199 126.441L121.183 124.74C121.379 124.402 121.605 124.144 121.859 123.96C122.113 123.777 122.384 123.677 122.672 123.664C122.956 123.648 123.239 123.723 123.518 123.885C123.789 124.04 123.985 124.24 124.115 124.482C124.244 124.723 124.294 124.994 124.273 125.295L125.908 125.17L125.253 126.295L123.873 126.395H123.877ZM122.405 124.878C122.247 124.932 122.105 125.065 121.98 125.282L121.642 125.866L122.73 126.495L123.068 125.912C123.193 125.695 123.239 125.503 123.21 125.341C123.181 125.174 123.076 125.045 122.905 124.944C122.73 124.844 122.564 124.819 122.405 124.874V124.878Z" fill="#690101"/>
<path d="M126.499 123.742C126.149 123.959 125.778 124.072 125.378 124.08C124.982 124.088 124.598 123.984 124.227 123.771C123.86 123.559 123.581 123.275 123.389 122.925C123.197 122.575 123.11 122.195 123.126 121.787C123.143 121.378 123.264 120.974 123.493 120.582C123.723 120.19 124.01 119.881 124.356 119.664C124.707 119.448 125.078 119.335 125.478 119.327C125.878 119.318 126.258 119.423 126.629 119.635C127 119.848 127.275 120.131 127.467 120.482C127.659 120.832 127.746 121.211 127.729 121.62C127.713 122.028 127.592 122.433 127.363 122.825C127.133 123.217 126.845 123.525 126.499 123.742ZM126.654 121.732C126.654 121.528 126.599 121.336 126.487 121.153C126.379 120.969 126.22 120.819 126.007 120.698C125.799 120.577 125.586 120.515 125.374 120.511C125.161 120.507 124.965 120.552 124.79 120.657C124.615 120.757 124.469 120.903 124.36 121.09C124.252 121.278 124.198 121.474 124.198 121.678C124.198 121.883 124.252 122.074 124.365 122.258C124.473 122.441 124.636 122.591 124.844 122.712C125.053 122.833 125.265 122.896 125.478 122.9C125.691 122.904 125.886 122.858 126.062 122.754C126.237 122.654 126.383 122.508 126.491 122.32C126.599 122.133 126.654 121.937 126.654 121.732Z" fill="#690101"/>
<path d="M101.061 124.86L102.024 124.801L102.263 128.647L101.502 128.693L98.7996 126.684L98.9311 128.795L97.9689 128.854L97.7422 125.154L98.5032 125.109L101.209 127.115L101.071 124.859L101.061 124.86Z" fill="#690101"/>
<path d="M100.837 120.876L101.775 120.818L101.99 124.266L97.6956 124.532L97.4893 121.164L98.4272 121.106L98.5598 123.271L99.2815 123.227L99.1636 121.318L100.071 121.26L100.189 123.169L100.975 123.123L100.834 120.878L100.837 120.876Z" fill="#690101"/>
<path d="M100.48 118.336L100.521 119L101.66 118.928L101.737 120.144L97.4428 120.41L97.3203 118.449C97.2965 118.059 97.3409 117.719 97.4511 117.425C97.5613 117.132 97.7316 116.898 97.9643 116.729C98.1912 116.558 98.4688 116.463 98.7915 116.444C99.1026 116.422 99.3766 116.481 99.6181 116.61C99.8596 116.74 100.051 116.938 100.2 117.2L101.492 116.191L101.57 117.491L100.476 118.338L100.48 118.336ZM98.4138 117.887C98.3119 118.02 98.2677 118.209 98.2836 118.459L98.3256 119.132L99.5804 119.054L99.5384 118.381C99.5226 118.131 99.4546 117.946 99.3402 117.827C99.2236 117.704 99.0652 117.654 98.8674 117.665C98.6662 117.679 98.5135 117.75 98.4115 117.883L98.4138 117.887Z" fill="#690101"/>
<path d="M101.196 114.676C101.024 115.05 100.777 115.35 100.449 115.578C100.123 115.804 99.7462 115.93 99.3194 115.958C98.8961 115.984 98.5065 115.903 98.1529 115.717C97.7992 115.532 97.5162 115.265 97.3039 114.915C97.0916 114.566 96.9683 114.162 96.9423 113.708C96.9162 113.255 96.985 112.839 97.1531 112.467C97.3247 112.092 97.5714 111.793 97.9001 111.564C98.2288 111.336 98.6025 111.213 99.0293 111.184C99.456 111.156 99.8422 111.24 100.196 111.425C100.549 111.611 100.832 111.878 101.045 112.228C101.257 112.577 101.38 112.981 101.406 113.434C101.432 113.887 101.364 114.304 101.196 114.676ZM100.211 112.917C100.098 112.747 99.9469 112.617 99.7515 112.527C99.5597 112.434 99.3446 112.397 99.1006 112.414C98.8601 112.428 98.6483 112.494 98.469 112.608C98.2896 112.723 98.1518 112.869 98.0637 113.053C97.9732 113.233 97.9325 113.436 97.9461 113.652C97.9597 113.868 98.0231 114.061 98.1362 114.231C98.2493 114.402 98.4007 114.531 98.596 114.622C98.7878 114.714 99.0064 114.749 99.2469 114.735C99.4875 114.72 99.6992 114.654 99.8786 114.54C100.058 114.426 100.196 114.279 100.284 114.095C100.374 113.915 100.415 113.713 100.401 113.496C100.388 113.28 100.324 113.087 100.211 112.917Z" fill="#690101"/>
<path d="M101.061 212.985L102.024 212.926L102.263 216.772L101.502 216.818L98.7996 214.809L98.9311 216.92L97.9689 216.979L97.7422 213.279L98.5032 213.234L101.209 215.24L101.071 212.984L101.061 212.985Z" fill="#690101"/>
<path d="M100.837 209.001L101.775 208.943L101.99 212.391L97.6956 212.657L97.4893 209.289L98.4272 209.231L98.5598 211.396L99.2815 211.352L99.1636 209.443L100.071 209.385L100.189 211.294L100.975 211.248L100.834 209.003L100.837 209.001Z" fill="#690101"/>
<path d="M100.48 206.461L100.521 207.125L101.66 207.053L101.737 208.269L97.4428 208.535L97.3203 206.574C97.2965 206.184 97.3409 205.844 97.4511 205.55C97.5613 205.257 97.7316 205.023 97.9643 204.854C98.1912 204.683 98.4688 204.588 98.7915 204.569C99.1026 204.547 99.3766 204.606 99.6181 204.735C99.8596 204.865 100.051 205.063 100.2 205.325L101.492 204.316L101.57 205.616L100.476 206.463L100.48 206.461ZM98.4138 206.012C98.3119 206.145 98.2677 206.334 98.2836 206.584L98.3256 207.257L99.5804 207.179L99.5384 206.506C99.5226 206.256 99.4546 206.071 99.3402 205.952C99.2236 205.829 99.0652 205.779 98.8674 205.79C98.6662 205.804 98.5135 205.875 98.4115 206.008L98.4138 206.012Z" fill="#690101"/>
<path d="M101.196 202.801C101.024 203.175 100.777 203.475 100.449 203.703C100.123 203.929 99.7462 204.055 99.3194 204.083C98.8961 204.109 98.5065 204.028 98.1529 203.842C97.7992 203.657 97.5162 203.39 97.3039 203.04C97.0916 202.691 96.9683 202.287 96.9423 201.833C96.9162 201.38 96.985 200.964 97.1531 200.592C97.3247 200.217 97.5714 199.918 97.9001 199.689C98.2288 199.461 98.6025 199.338 99.0293 199.309C99.456 199.281 99.8422 199.365 100.196 199.55C100.549 199.736 100.832 200.003 101.045 200.353C101.257 200.702 101.38 201.106 101.406 201.559C101.432 202.012 101.364 202.429 101.196 202.801ZM100.211 201.042C100.098 200.872 99.9469 200.742 99.7515 200.652C99.5597 200.559 99.3446 200.522 99.1006 200.539C98.8601 200.553 98.6483 200.619 98.469 200.733C98.2896 200.848 98.1518 200.994 98.0637 201.178C97.9732 201.358 97.9325 201.561 97.9461 201.777C97.9597 201.993 98.0231 202.186 98.1362 202.356C98.2493 202.527 98.4007 202.656 98.596 202.747C98.7878 202.839 99.0064 202.874 99.2469 202.86C99.4875 202.845 99.6992 202.779 99.8786 202.665C100.058 202.551 100.196 202.404 100.284 202.22C100.374 202.04 100.415 201.838 100.401 201.621C100.388 201.405 100.324 201.212 100.211 201.042Z" fill="#690101"/>
<path d="M85.6672 184.143C85.8924 183.976 86.13 183.872 86.3927 183.83L86.7388 184.797C86.3635 184.847 86.1134 184.985 85.9799 185.214C85.8924 185.369 85.8715 185.51 85.9174 185.644C85.9633 185.777 86.0758 185.894 86.251 185.998L87.8521 186.928L88.5984 185.64L89.4115 186.111L88.0605 188.442L85.7089 187.078C85.2253 186.799 84.9376 186.469 84.8333 186.086C84.7333 185.702 84.8208 185.277 85.0918 184.806C85.2503 184.531 85.4421 184.31 85.6631 184.143H85.6672Z" fill="#690101"/>
<path d="M83.249 189.828L84.1621 188.252L83.6075 187.539L84.2288 186.463L86.9974 190.261L86.397 191.3L81.7188 190.791L82.3525 189.694L83.2448 189.819L83.249 189.828ZM84.2038 189.969L85.6715 190.182L84.7583 189.015L84.2038 189.974V189.969Z" fill="#690101"/>
<path d="M81.2852 191.949C81.6313 191.737 82.0023 191.624 82.3984 191.616C82.7945 191.607 83.1781 191.712 83.5534 191.928C83.9245 192.145 84.208 192.425 84.3998 192.775C84.5916 193.121 84.6792 193.5 84.6667 193.905C84.65 194.309 84.5291 194.709 84.3039 195.097C84.108 195.439 83.8703 195.71 83.5909 195.91C83.3116 196.115 83.0072 196.24 82.6778 196.29L82.461 195.268C82.8904 195.193 83.2073 194.989 83.4033 194.643C83.52 194.443 83.5784 194.234 83.5826 194.026C83.5826 193.817 83.5326 193.621 83.42 193.442C83.3074 193.263 83.149 193.113 82.9405 192.992C82.732 192.871 82.5194 192.808 82.3109 192.8C82.0982 192.792 81.9023 192.842 81.723 192.95C81.5437 193.054 81.3936 193.208 81.2768 193.413C81.0767 193.755 81.0517 194.134 81.206 194.543L80.2136 194.86C80.0927 194.547 80.051 194.222 80.0885 193.876C80.1261 193.534 80.2428 193.192 80.4429 192.85C80.6681 192.458 80.9558 192.158 81.2977 191.941L81.2852 191.949Z" fill="#690101"/>
<path d="M79.8216 197.187L79.6298 196.549L78.7 196.011L79.3046 194.969L83.028 197.124L82.4234 198.167L80.8765 197.27L81.5895 199.609L80.9182 200.769L80.151 198.292L77.1489 198.692L77.8577 197.47L79.8258 197.191L79.8216 197.187Z" fill="#690101"/>
<path d="M79.0462 203.606C78.7918 203.789 78.5208 203.889 78.2331 203.902C77.9496 203.918 77.6661 203.843 77.3867 203.681C77.1074 203.518 76.903 203.309 76.7738 203.055C76.6445 202.801 76.5987 202.517 76.632 202.205C76.6654 201.892 76.778 201.567 76.9739 201.229L77.3492 200.578L76.3777 200.016L76.9864 198.965L80.7098 201.12L79.7258 202.822C79.5298 203.159 79.3047 203.418 79.0504 203.601L79.0462 203.606ZM77.6953 202.221C77.7244 202.388 77.8287 202.517 78.0038 202.617C78.1789 202.717 78.3457 202.742 78.5041 202.688C78.6626 202.634 78.8085 202.496 78.9294 202.284L79.2672 201.7L78.1789 201.066L77.8412 201.65C77.7161 201.867 77.6702 202.059 77.6994 202.221H77.6953Z" fill="#690101"/>
<path d="M74.4178 203.801C74.768 203.584 75.1391 203.472 75.5394 203.463C75.9355 203.455 76.3191 203.559 76.6902 203.772C77.0571 203.985 77.3365 204.268 77.5283 204.618C77.7201 204.969 77.8076 205.348 77.791 205.757C77.7743 206.165 77.6534 206.57 77.424 206.962C77.1947 207.354 76.907 207.662 76.5609 207.879C76.2107 208.096 75.8396 208.208 75.4393 208.217C75.0391 208.225 74.6555 208.121 74.2885 207.908C73.9175 207.695 73.6423 207.412 73.4505 207.062C73.2587 206.711 73.1711 206.332 73.1878 205.923C73.2045 205.515 73.3254 205.11 73.5547 204.718C73.784 204.326 74.0717 204.018 74.4178 203.801ZM74.2635 205.811C74.2635 206.015 74.3177 206.207 74.4303 206.39C74.5387 206.574 74.6972 206.724 74.9098 206.845C75.1183 206.966 75.3309 207.028 75.5436 207.032C75.7562 207.037 75.9522 206.991 76.1273 206.887C76.3024 206.786 76.4484 206.641 76.5568 206.453C76.6652 206.265 76.7194 206.069 76.7194 205.865C76.7194 205.661 76.6652 205.469 76.5526 205.285C76.4442 205.102 76.2816 204.952 76.0731 204.831C75.8646 204.71 75.652 204.647 75.4393 204.643C75.2267 204.639 75.0307 204.685 74.8556 204.789C74.6805 204.889 74.5346 205.035 74.4261 205.223C74.3177 205.411 74.2635 205.606 74.2635 205.811Z" fill="#690101"/>
<path d="M74.568 209.793L75.231 208.651L76.0649 209.134L74.1344 212.47L73.3005 211.986L73.9593 210.848L71.074 209.176L71.6827 208.121L74.568 209.793Z" fill="#690101"/>
<path d="M144.207 165.957C144.495 166.203 144.637 166.532 144.637 166.941C144.637 167.208 144.566 167.454 144.428 167.675C144.291 167.896 144.082 168.075 143.799 168.204C143.515 168.338 143.169 168.4 142.756 168.4C142.452 168.4 142.152 168.359 141.856 168.284C141.56 168.208 141.305 168.104 141.093 167.967L141.535 167.054C141.706 167.17 141.893 167.258 142.102 167.32C142.31 167.383 142.515 167.416 142.727 167.416C142.936 167.416 143.102 167.379 143.228 167.3C143.353 167.22 143.415 167.108 143.415 166.966C143.415 166.824 143.357 166.712 143.232 166.641C143.111 166.566 142.894 166.528 142.581 166.528H141.414L141.643 164.01L144.383 164.022V164.965L142.644 164.956L142.585 165.582H142.873C143.474 165.586 143.92 165.711 144.207 165.957Z" fill="#690101"/>
<path d="M145.896 168.154C145.609 167.975 145.388 167.716 145.229 167.379C145.071 167.041 144.991 166.641 144.991 166.178C144.991 165.715 145.075 165.315 145.242 164.977C145.404 164.639 145.629 164.385 145.917 164.21C146.205 164.035 146.534 163.947 146.901 163.951C147.264 163.951 147.589 164.043 147.877 164.222C148.164 164.402 148.385 164.66 148.544 164.998C148.702 165.336 148.782 165.736 148.782 166.199C148.782 166.662 148.698 167.062 148.531 167.4C148.369 167.737 148.144 167.992 147.856 168.167C147.568 168.342 147.243 168.429 146.876 168.425C146.509 168.425 146.18 168.333 145.892 168.154H145.896ZM147.372 167.133C147.493 166.937 147.556 166.62 147.56 166.19C147.56 165.761 147.502 165.444 147.385 165.248C147.264 165.048 147.101 164.948 146.897 164.948C146.688 164.948 146.522 165.044 146.401 165.244C146.28 165.444 146.217 165.757 146.213 166.186C146.213 166.616 146.272 166.933 146.388 167.128C146.509 167.329 146.672 167.429 146.88 167.429C147.085 167.429 147.247 167.333 147.372 167.133Z" fill="#690101"/>
<path d="M152.463 167.943C152.217 168.189 151.863 168.347 151.4 168.414V169.098H150.658V168.439C150.353 168.418 150.061 168.364 149.79 168.276C149.515 168.193 149.29 168.084 149.111 167.963L149.515 167.067C149.707 167.196 149.928 167.296 150.182 167.376C150.437 167.455 150.687 167.496 150.933 167.496C151.4 167.496 151.633 167.384 151.633 167.15C151.633 167.03 151.567 166.938 151.433 166.875C151.3 166.813 151.087 166.75 150.791 166.683C150.466 166.613 150.199 166.537 149.982 166.454C149.765 166.371 149.578 166.246 149.424 166.066C149.269 165.891 149.19 165.649 149.194 165.353C149.194 164.999 149.323 164.699 149.582 164.449C149.836 164.198 150.203 164.044 150.683 163.99V163.314H151.425V163.977C151.654 163.998 151.879 164.04 152.092 164.102C152.305 164.165 152.496 164.244 152.667 164.344L152.288 165.245C151.879 165.02 151.483 164.907 151.096 164.907C150.854 164.907 150.679 164.941 150.566 165.011C150.453 165.082 150.399 165.174 150.399 165.291C150.399 165.408 150.462 165.491 150.595 165.549C150.724 165.608 150.937 165.666 151.229 165.733C151.558 165.804 151.829 165.879 152.042 165.962C152.259 166.041 152.442 166.171 152.601 166.346C152.759 166.521 152.834 166.758 152.834 167.059C152.834 167.401 152.709 167.692 152.463 167.938V167.943Z" fill="#690101"/>
<path d="M58.9197 166.885L58.9405 162.582H60.158L60.1413 165.951H60.9419L60.9377 166.893L58.9238 166.885H58.9197Z" fill="#690101"/>
<path d="M57.3809 162.754C57.6686 162.933 57.8896 163.187 58.048 163.529C58.2065 163.867 58.2857 164.267 58.2857 164.73C58.2857 165.193 58.2023 165.593 58.0355 165.931C57.8729 166.268 57.6478 166.523 57.3601 166.698C57.0724 166.873 56.743 166.961 56.3761 166.956C56.0133 166.956 55.6881 166.865 55.4004 166.685C55.1127 166.506 54.8917 166.252 54.7333 165.91C54.5748 165.572 54.4956 165.172 54.4956 164.709C54.4956 164.246 54.579 163.846 54.7458 163.508C54.9084 163.171 55.1335 162.916 55.4212 162.741C55.7089 162.566 56.0342 162.478 56.4011 162.483C56.768 162.483 57.0974 162.574 57.3851 162.754H57.3809ZM55.9049 163.775C55.784 163.971 55.7214 164.288 55.7173 164.717C55.7173 165.147 55.7757 165.464 55.8924 165.66C56.0133 165.86 56.1759 165.96 56.3802 165.96C56.5887 165.96 56.7555 165.864 56.8764 165.664C56.9973 165.464 57.0599 165.151 57.064 164.722C57.064 164.292 57.0057 163.975 56.8889 163.779C56.768 163.579 56.6054 163.479 56.3969 163.479C56.1926 163.479 56.03 163.575 55.9049 163.775Z" fill="#690101"/>
<path d="M53.1697 162.73C53.4574 162.909 53.6784 163.168 53.8369 163.506C53.9953 163.843 54.0745 164.244 54.0745 164.707C54.0745 165.169 53.9911 165.57 53.8244 165.907C53.6617 166.245 53.4366 166.499 53.1489 166.675C52.8612 166.85 52.5318 166.937 52.1649 166.933C51.8021 166.933 51.4769 166.841 51.1892 166.662C50.9015 166.483 50.6805 166.224 50.5221 165.886C50.3636 165.549 50.2844 165.144 50.2844 164.686C50.2844 164.223 50.3678 163.823 50.5346 163.485C50.6972 163.147 50.9224 162.893 51.2101 162.718C51.4978 162.543 51.823 162.455 52.1899 162.459C52.5568 162.459 52.8862 162.551 53.1739 162.73H53.1697ZM51.6937 163.752C51.5728 163.952 51.5103 164.265 51.5061 164.694C51.5061 165.123 51.5645 165.44 51.6812 165.636C51.8021 165.836 51.9647 165.937 52.1691 165.937C52.3775 165.937 52.5443 165.841 52.6652 165.64C52.7861 165.44 52.8487 165.128 52.8529 164.698C52.8529 164.269 52.7945 163.952 52.6777 163.756C52.5568 163.556 52.3942 163.456 52.1857 163.456C51.9814 163.456 51.8188 163.552 51.6937 163.752Z" fill="#690101"/>
<path d="M46.6028 162.944C46.8488 162.698 47.2032 162.54 47.666 162.473V161.789H48.4082V162.448C48.7126 162.469 49.0044 162.523 49.2754 162.61C49.5506 162.694 49.7758 162.802 49.9551 162.923L49.5506 163.82C49.3588 163.69 49.1379 163.586 48.8835 163.507C48.6292 163.428 48.379 163.386 48.133 163.386C47.666 163.386 47.4325 163.499 47.4325 163.732C47.4325 163.853 47.4992 163.945 47.6327 164.007C47.7661 164.066 47.9787 164.132 48.2748 164.199C48.6 164.27 48.8668 164.345 49.0836 164.428C49.3005 164.512 49.4881 164.637 49.6424 164.816C49.7966 164.991 49.8759 165.233 49.8717 165.529C49.8717 165.884 49.7424 166.184 49.4839 166.434C49.2296 166.684 48.8627 166.838 48.3832 166.893V167.568H47.641V166.905C47.4117 166.884 47.1865 166.843 46.9739 166.78C46.7612 166.717 46.5694 166.638 46.3985 166.538L46.7779 165.638C47.1865 165.863 47.5826 165.975 47.9704 165.975C48.2122 165.975 48.3873 165.942 48.4999 165.871C48.6125 165.8 48.6667 165.708 48.6667 165.592C48.6667 165.475 48.6042 165.392 48.4707 165.333C48.3415 165.275 48.1288 165.216 47.837 165.15C47.5076 165.079 47.2365 165.004 47.0239 164.92C46.8071 164.841 46.6236 164.712 46.4652 164.537C46.3067 164.362 46.2317 164.124 46.2317 163.824C46.2317 163.482 46.3568 163.19 46.6028 162.944Z" fill="#690101"/>
<path d="M123.36 208.137C123.289 208.509 123.072 208.796 122.718 209.001C122.484 209.13 122.238 209.192 121.975 209.184C121.713 209.176 121.454 209.08 121.2 208.901C120.946 208.721 120.716 208.454 120.512 208.092C120.362 207.829 120.245 207.55 120.166 207.254C120.082 206.957 120.049 206.686 120.062 206.432L121.075 206.361C121.058 206.566 121.075 206.774 121.125 206.987C121.175 207.199 121.25 207.395 121.354 207.575C121.458 207.758 121.575 207.883 121.704 207.95C121.834 208.021 121.963 208.017 122.088 207.95C122.213 207.879 122.276 207.771 122.28 207.629C122.28 207.487 122.209 207.279 122.055 207.008L121.479 205.99L123.773 204.939L125.123 207.324L124.306 207.787L123.451 206.278L122.88 206.541L123.022 206.791C123.318 207.316 123.431 207.762 123.36 208.137Z" fill="#690101"/>
<path d="M123.664 212.628C123.326 212.536 123.018 212.307 122.726 211.94L122.134 212.278L121.771 211.636L122.342 211.31C122.209 211.031 122.113 210.752 122.05 210.472C121.988 210.193 121.967 209.943 121.984 209.726L122.959 209.63C122.943 209.859 122.963 210.105 123.022 210.364C123.08 210.622 123.168 210.86 123.289 211.073C123.518 211.481 123.735 211.623 123.939 211.51C124.048 211.448 124.093 211.348 124.077 211.202C124.064 211.056 124.01 210.839 123.922 210.551C123.822 210.235 123.756 209.964 123.718 209.734C123.681 209.505 123.701 209.28 123.777 209.059C123.852 208.838 124.023 208.65 124.281 208.504C124.59 208.329 124.915 208.292 125.257 208.387C125.603 208.483 125.916 208.729 126.203 209.117L126.791 208.784L127.154 209.426L126.574 209.751C126.67 209.964 126.745 210.18 126.799 210.397C126.854 210.614 126.879 210.822 126.874 211.014L125.903 211.131C125.895 210.664 125.795 210.264 125.603 209.93C125.482 209.722 125.365 209.584 125.248 209.522C125.132 209.459 125.023 209.459 124.923 209.513C124.823 209.572 124.781 209.672 124.798 209.813C124.811 209.955 124.865 210.168 124.957 210.451C125.057 210.772 125.127 211.043 125.161 211.269C125.198 211.494 125.178 211.719 125.107 211.944C125.032 212.169 124.865 212.353 124.606 212.499C124.31 212.665 123.993 212.703 123.66 212.615L123.664 212.628Z" fill="#690101"/>
<path d="M75.6854 122.774C75.7562 122.403 75.9731 122.115 76.3275 121.915C76.561 121.781 76.807 121.723 77.0655 121.731C77.3282 121.74 77.5867 121.835 77.841 122.015C78.0953 122.194 78.3247 122.461 78.529 122.824C78.6791 123.086 78.7958 123.366 78.8751 123.662C78.9584 123.958 78.9918 124.229 78.9793 124.483L77.9661 124.554C77.9828 124.35 77.9661 124.141 77.9161 123.929C77.866 123.72 77.791 123.524 77.6867 123.341C77.5825 123.157 77.4657 123.032 77.3365 122.965C77.2031 122.895 77.078 122.899 76.9529 122.965C76.8278 123.036 76.7653 123.145 76.7611 123.286C76.7611 123.428 76.832 123.637 76.9863 123.908L77.5616 124.925L75.2684 125.976L73.9175 123.591L74.7347 123.128L75.5895 124.637L76.1607 124.375L76.0189 124.125C75.7229 123.599 75.6103 123.153 75.6812 122.778L75.6854 122.774Z" fill="#690101"/>
<path d="M75.3769 118.287C75.7146 118.379 76.0232 118.604 76.315 118.975L76.9071 118.637L77.2698 119.28L76.6986 119.605C76.832 119.884 76.9321 120.159 76.9905 120.443C77.053 120.722 77.0739 120.972 77.0572 121.189L76.0815 121.285C76.0982 121.056 76.0774 120.81 76.019 120.551C75.9606 120.293 75.8731 120.055 75.7521 119.842C75.5228 119.438 75.306 119.292 75.1017 119.405C74.9933 119.467 74.9474 119.567 74.9599 119.713C74.9724 119.859 75.0266 120.076 75.1142 120.364C75.2143 120.68 75.281 120.952 75.3185 121.181C75.356 121.41 75.3352 121.635 75.2601 121.856C75.1809 122.077 75.0141 122.265 74.7556 122.411C74.4471 122.586 74.1218 122.624 73.7799 122.528C73.4339 122.432 73.1212 122.186 72.8335 121.798L72.2456 122.131L71.8828 121.489L72.4624 121.164C72.3665 120.952 72.2914 120.735 72.2372 120.518C72.183 120.301 72.158 120.093 72.1622 119.901L73.1337 119.784C73.142 120.251 73.2421 120.651 73.4339 120.985C73.5506 121.198 73.6715 121.331 73.7883 121.393C73.905 121.456 74.0134 121.456 74.1135 121.402C74.2136 121.343 74.2553 121.248 74.2428 121.102C74.2261 120.96 74.1761 120.747 74.0843 120.464C73.9843 120.143 73.9134 119.872 73.8758 119.646C73.8383 119.421 73.8592 119.196 73.93 118.971C74.0051 118.746 74.1719 118.562 74.4304 118.416C74.7264 118.25 75.0433 118.212 75.3769 118.3V118.287Z" fill="#690101"/>
</g>
<g style="mix-blend-mode:overlay">
<path d="M99.7104 147.91C109.244 147.91 116.974 155.773 116.974 165.471C116.974 175.169 109.244 183.033 99.7104 183.033C90.1767 183.033 82.4465 175.169 82.4465 165.471C82.4465 155.773 90.1767 147.91 99.7104 147.91ZM99.7104 147.291C89.856 147.291 81.8384 155.447 81.8384 165.471C81.8384 175.496 89.856 183.651 99.7104 183.651C109.565 183.651 117.582 175.496 117.582 165.471C117.582 155.447 109.565 147.291 99.7104 147.291Z" fill="#616161"/>
</g>
<g style="mix-blend-mode:overlay">
<path d="M99.4024 151.642C107.04 151.642 113.227 157.834 113.227 165.467C113.227 173.1 107.035 179.291 99.4024 179.291C91.7695 179.291 85.5741 173.1 85.5741 165.467C85.5741 157.834 91.7654 151.642 99.4024 151.642ZM99.4024 150.988C91.4154 150.988 84.9199 157.484 84.9199 165.471C84.9199 173.458 91.4154 179.953 99.4024 179.953C107.389 179.953 113.885 173.458 113.885 165.471C113.885 157.484 107.389 150.988 99.4024 150.988Z" fill="#616161"/>
</g>
<defs>
<radialGradient id="paint0_radial_9279_5833" cx="0" cy="0" r="1" gradientUnits="userSpaceOnUse" gradientTransform="translate(98.478 167.011) scale(6.77905)">
<stop offset="0.34" stop-color="#400500"/>
<stop offset="0.37" stop-color="#4E1813"/>
<stop offset="0.47" stop-color="#7C5451"/>
<stop offset="0.57" stop-color="#A48886"/>
<stop offset="0.67" stop-color="#C4B3B1"/>
<stop offset="0.76" stop-color="#DED4D3"/>
<stop offset="0.85" stop-color="#F0EBEB"/>
<stop offset="0.93" stop-color="#FBFAF9"/>
<stop offset="1" stop-color="white"/>
</radialGradient>
</defs>
</svg>
