<?xml version="1.0" standalone="no"?>
<!DOCTYPE svg PUBLIC "-//W3C//DTD SVG 20010904//EN"
 "http://www.w3.org/TR/2001/REC-SVG-20010904/DTD/svg10.dtd">
<svg version="1.0" xmlns="http://www.w3.org/2000/svg"
 width="1470.000000pt" height="1470.000000pt" viewBox="0 0 1470.000000 1470.000000"
 preserveAspectRatio="xMidYMid meet">
<metadata>
Created by potrace 1.14, written by Peter Selinger 2001-2017
</metadata>
<g transform="translate(0.000000,1470.000000) scale(0.100000,-0.100000)"
fill="#000000" stroke="none">
<path d="M7100 14030 c-159 -33 -276 -83 -418 -178 -108 -71 -293 -277 -317
-351 -3 -12 -11 -21 -16 -21 -5 0 -9 -5 -9 -10 0 -6 -18 -40 -40 -76 -22 -36
-40 -67 -40 -69 0 -2 -21 -39 -46 -82 -26 -43 -56 -94 -67 -113 -55 -98 -373
-649 -426 -738 -34 -57 -61 -105 -61 -107 0 -3 -20 -37 -44 -77 -38 -63 -435
-753 -485 -841 -68 -121 -217 -377 -232 -399 -11 -15 -19 -29 -19 -31 0 -3
-82 -146 -181 -318 -100 -173 -190 -330 -201 -349 -11 -19 -44 -75 -73 -125
-29 -49 -63 -110 -77 -135 -14 -25 -92 -160 -173 -300 -245 -422 -297 -512
-316 -547 -37 -66 -57 -99 -88 -151 -17 -29 -31 -54 -31 -56 0 -2 -17 -33 -38
-67 -79 -130 -262 -452 -262 -460 0 -5 -4 -9 -9 -9 -5 0 -11 -8 -14 -17 -4
-10 -17 -36 -30 -58 -13 -22 -35 -61 -50 -87 -27 -48 -63 -110 -85 -143 -6
-11 -15 -27 -19 -35 -4 -8 -34 -62 -68 -120 -58 -99 -186 -320 -211 -365 -88
-154 -115 -260 -110 -420 10 -306 207 -570 501 -671 73 -26 93 -28 225 -29
123 0 317 10 370 20 8 1 53 6 100 10 47 4 94 9 105 11 11 2 54 6 96 9 42 3 86
7 97 10 12 2 47 6 79 10 32 3 69 8 83 10 23 3 50 7 168 21 26 3 74 9 107 14
33 5 80 12 105 15 42 5 135 19 205 31 17 3 41 7 55 9 165 25 538 90 630 110
37 8 63 13 106 19 22 4 46 8 54 11 8 2 26 6 40 9 24 4 169 34 200 41 8 2 58
13 110 24 158 33 347 78 710 166 90 22 649 174 715 194 17 5 100 29 186 54 85
25 175 52 200 60 24 8 98 31 164 52 224 69 707 232 920 310 55 20 111 40 125
45 43 14 398 149 570 217 257 101 363 165 496 301 147 150 237 318 291 542 21
91 24 344 4 432 -7 32 -13 61 -13 65 -5 49 -80 220 -143 328 -23 38 -53 90
-67 115 -14 25 -67 117 -118 205 -51 88 -104 180 -118 205 -14 25 -45 78 -69
118 -24 41 -43 75 -43 78 0 2 -15 27 -34 56 -18 29 -45 76 -60 103 -15 28 -36
66 -47 85 -49 82 -254 436 -379 656 -10 16 -52 90 -95 164 -43 74 -86 149 -96
167 -11 19 -85 147 -166 286 -80 139 -156 270 -167 292 -12 22 -23 42 -26 45
-3 3 -11 16 -18 29 -8 13 -22 38 -31 55 -10 17 -49 85 -88 151 -38 66 -72 127
-76 135 -4 8 -16 29 -27 45 -11 17 -23 37 -27 45 -7 15 -125 222 -143 250 -13
21 -68 116 -96 165 -12 22 -55 96 -94 165 -40 69 -80 139 -90 155 -139 241
-203 321 -358 442 -79 62 -261 149 -377 180 -134 35 -364 41 -495 13z"/>
<path d="M11339 6466 c-2 -2 -17 -6 -34 -9 -16 -3 -50 -10 -75 -15 -25 -6 -56
-13 -70 -15 -14 -3 -164 -39 -333 -81 -170 -42 -319 -78 -331 -80 -13 -2 -50
-11 -82 -20 -32 -8 -126 -32 -209 -51 -82 -20 -187 -45 -231 -56 -45 -11 -90
-22 -100 -24 -11 -2 -48 -12 -84 -20 -36 -9 -76 -19 -90 -21 -14 -3 -38 -9
-55 -14 -16 -5 -91 -23 -165 -40 -239 -54 -634 -142 -658 -146 -12 -3 -95 -20
-185 -38 -89 -19 -179 -37 -201 -40 -21 -4 -41 -8 -45 -10 -3 -2 -22 -7 -41
-10 -19 -3 -73 -13 -120 -21 -47 -9 -123 -23 -170 -31 -47 -8 -96 -17 -110
-20 -14 -2 -41 -7 -60 -9 -19 -3 -44 -7 -55 -10 -17 -3 -226 -36 -320 -50
-168 -25 -246 -37 -280 -41 -22 -3 -56 -7 -75 -9 -19 -3 -60 -7 -90 -11 -30
-3 -66 -7 -80 -9 -14 -2 -50 -7 -80 -10 -30 -3 -71 -7 -90 -10 -19 -3 -62 -7
-95 -10 -33 -3 -80 -7 -105 -10 -25 -3 -74 -7 -110 -10 -36 -3 -93 -8 -128
-11 -102 -8 -171 -13 -282 -19 -58 -3 -132 -8 -165 -10 -391 -24 -1301 -24
-1655 0 -30 2 -109 6 -175 10 -119 6 -199 11 -305 20 -30 2 -91 7 -135 10 -44
4 -91 8 -105 10 -191 28 -466 22 -655 -15 -198 -39 -290 -69 -470 -153 -49
-23 -92 -45 -95 -48 -3 -3 -21 -14 -40 -24 -51 -26 -166 -105 -241 -165 -124
-99 -225 -205 -322 -335 -37 -49 -71 -94 -75 -100 -7 -9 -124 -209 -292 -500
-32 -55 -84 -145 -116 -200 -32 -55 -68 -116 -79 -136 -27 -48 -145 -251 -172
-297 -12 -20 -25 -43 -29 -51 -4 -8 -36 -64 -72 -125 -36 -61 -74 -127 -84
-146 -11 -19 -32 -55 -47 -80 -14 -25 -35 -61 -46 -81 -19 -34 -163 -282 -196
-337 -9 -15 -27 -47 -41 -72 -14 -25 -48 -83 -75 -130 -28 -47 -59 -101 -70
-120 -11 -19 -64 -111 -118 -205 -136 -234 -184 -336 -200 -425 -3 -14 -9 -47
-14 -75 -14 -68 -6 -276 13 -350 59 -235 176 -416 360 -554 108 -82 218 -133
356 -165 58 -14 768 -16 6607 -16 5710 0 6551 2 6611 15 320 67 591 316 695
640 33 103 41 157 42 280 0 178 -34 324 -105 450 -10 17 -75 130 -146 253 -71
122 -138 239 -150 260 -11 20 -47 82 -79 137 -96 166 -236 407 -260 450 -13
22 -78 135 -145 250 -68 116 -136 235 -153 265 -16 30 -33 60 -37 65 -4 6 -92
156 -195 335 -223 387 -464 804 -552 953 -34 59 -63 110 -63 112 0 2 -24 44
-53 92 -30 49 -65 109 -79 133 -86 155 -406 704 -435 748 -49 73 -165 189
-242 241 -162 110 -326 162 -527 167 -72 2 -133 2 -135 0z"/>
</g>
</svg>
