<?xml version="1.0" standalone="no"?>
<!DOCTYPE svg PUBLIC "-//W3C//DTD SVG 20010904//EN"
 "http://www.w3.org/TR/2001/REC-SVG-20010904/DTD/svg10.dtd">
<svg version="1.0" xmlns="http://www.w3.org/2000/svg"
 width="512.000000pt" height="512.000000pt" viewBox="0 0 512.000000 512.000000"
 preserveAspectRatio="xMidYMid meet">
<metadata>
Created by potrace 1.14, written by Peter Selinger 2001-2017
</metadata>
<g transform="translate(0.000000,512.000000) scale(0.100000,-0.100000)"
fill="#000000" stroke="none">
<path d="M2567 5004 c-4 -4 -7 -460 -7 -1013 l0 -1006 -66 -13 c-69 -13 -146
-47 -202 -89 l-33 -25 -222 214 c-122 118 -449 431 -726 697 l-503 483 -30
-29 c-51 -47 -188 -223 -254 -323 -179 -273 -310 -606 -363 -920 -17 -103 -40
-319 -41 -392 0 -17 58 -18 1019 -20 l1019 -3 6 49 c7 63 54 163 100 214 152
168 415 174 575 13 195 -194 141 -516 -107 -638 -72 -36 -81 -38 -171 -38 -87
0 -102 3 -163 32 -37 17 -88 51 -115 75 -26 23 -39 33 -29 20 l20 -23 -718
-718 -718 -718 89 -78 c432 -382 922 -587 1495 -626 418 -28 818 52 1203 240
500 246 879 623 1121 1116 118 242 201 519 235 790 20 155 17 497 -4 633 -51
318 -156 619 -310 884 -84 143 -164 253 -301 411 -328 378 -789 643 -1305 751
-164 34 -478 66 -494 50z"/>
</g>
</svg>
